<svg xmlns="http://www.w3.org/2000/svg" width="24.858" height="21.754" viewBox="0 0 24.858 21.754">
  <g id="arrow-left-short" transform="translate(-8.998 -10.123)">
    <path id="Tracé_221" data-name="Tracé 221" d="M20.976,10.58a1.554,1.554,0,0,1,0,2.2L12.751,21l8.225,8.222a1.555,1.555,0,0,1-2.2,2.2L9.455,22.1a1.554,1.554,0,0,1,0-2.2l9.321-9.321a1.554,1.554,0,0,1,2.2,0Z" transform="translate(0)" fill="#f1f1f1" fill-rule="evenodd"/>
    <path id="Tracé_222" data-name="Tracé 222" d="M10.125,18.429a1.554,1.554,0,0,1,1.554-1.554h20.2a1.554,1.554,0,1,1,0,3.107h-20.2A1.554,1.554,0,0,1,10.125,18.429Z" transform="translate(0.429 2.572)" fill="#f1f1f1" fill-rule="evenodd"/>
  </g>
</svg>
