<svg xmlns="http://www.w3.org/2000/svg" width="20" height="20" viewBox="0 0 20 20">
  <path id="calendar" d="M5,.625a.625.625,0,1,0-1.25,0V1.25H2.5A2.5,2.5,0,0,0,0,3.75V5H20V3.75a2.5,2.5,0,0,0-2.5-2.5H16.25V.625a.625.625,0,1,0-1.25,0V1.25H5ZM0,6.25H20V17.5A2.5,2.5,0,0,1,17.5,20H2.5A2.5,2.5,0,0,1,0,17.5Zm11.67,9.737a1.987,1.987,0,0,1-2.129-1.759H10.4a1.239,1.239,0,0,0,1.314,1.025c1.055,0,1.626-1.06,1.631-2.7h-.034a1.742,1.742,0,0,1-1.729.988,2.073,2.073,0,0,1-2.095-2.212,2.2,2.2,0,0,1,2.246-2.261c1.465,0,2.441.917,2.441,3.335,0,2.256-.927,3.589-2.5,3.589Zm.083-3.18a1.465,1.465,0,0,0,1.48-1.475,1.393,1.393,0,0,0-1.45-1.538,1.414,1.414,0,0,0-1.46,1.513,1.376,1.376,0,0,0,1.43,1.5Zm-3.7-3.613v6.665H7.212V10.1H7.2c-.362.195-1.1.65-1.572.971V10.2A15.75,15.75,0,0,1,7.266,9.194h.79Z" fill="#f1f1f1" fill-rule="evenodd"/>
</svg>
