<svg xmlns="http://www.w3.org/2000/svg" width="50" height="49" viewBox="0 0 50 49">
  <g id="Groupe_209" data-name="Groupe 209" transform="translate(-27.807 -3.391)">
    <rect id="Rectangle_164" data-name="Rectangle 164" width="50" height="49" rx="8" transform="translate(27.807 3.391)" fill="#b665e6"/>
    <path id="tag" d="M.921,10.048V2.114A2.2,2.2,0,0,1,3.035,0h7.934a5.53,5.53,0,0,1,3.617,1.5L26.33,14.575a2.291,2.291,0,0,1,0,3.005l-9.192,9.192a2.184,2.184,0,0,1-3.005,0L2.424,13.665A6.01,6.01,0,0,1,.921,10.048ZM4.364,5.469A2.093,2.093,0,0,0,6.39,7.514,2.106,2.106,0,0,0,8.435,5.469,2.092,2.092,0,0,0,6.39,3.443,2.079,2.079,0,0,0,4.364,5.469Z" transform="translate(38.902 14.604)" fill="#f1f1f1"/>
  </g>
</svg>
