<svg xmlns="http://www.w3.org/2000/svg" width="50" height="49" viewBox="0 0 50 49">
  <g id="Groupe_205" data-name="Groupe 205" transform="translate(0.193 -0.391)">
    <rect id="Rectangle_164" data-name="Rectangle 164" width="50" height="49" rx="8" transform="translate(-0.193 0.391)" fill="#ea4730"/>
    <path id="bxs-beer" d="M28.93,8.822H26.049V5.941A1.441,1.441,0,0,0,24.608,4.5H4.441A1.441,1.441,0,0,0,3,5.941V27.549A4.327,4.327,0,0,0,7.322,31.87H21.727a4.327,4.327,0,0,0,4.322-4.322V26.108H28.93a2.883,2.883,0,0,0,2.881-2.881V11.7A2.883,2.883,0,0,0,28.93,8.822ZM11.643,24.668H8.762V10.262h2.881Zm8.643,0H17.405V10.262h2.881Zm8.643-1.441H26.049V11.7H28.93Z" transform="translate(6.997 7.104)" fill="#f1f1f1"/>
  </g>
</svg>
