<svg xmlns="http://www.w3.org/2000/svg" width="50" height="49" viewBox="0 0 50 49">
  <g id="Groupe_215" data-name="Groupe 215" transform="translate(0.193 -0.391)">
    <rect id="Rectangle_164" data-name="Rectangle 164" width="50" height="49" rx="8" transform="translate(-0.193 0.391)" fill="#79e674"/>
    <path id="Tracé_236" data-name="Tracé 236" d="M7.5.906a.938.938,0,0,0-1.875,0v.906H3.75A3.689,3.689,0,0,0,0,5.438V7.25H30V5.438a3.689,3.689,0,0,0-3.75-3.625H24.376V.906a.938.938,0,0,0-1.875,0v.906H7.5ZM0,9.063H30V25.376A3.689,3.689,0,0,1,26.251,29H3.75A3.689,3.689,0,0,1,0,25.376Zm20.352,6.985a.886.886,0,0,0,0-1.283.962.962,0,0,0-1.328,0l-4.961,4.8-2.149-2.078a.962.962,0,0,0-1.328,0,.886.886,0,0,0,0,1.283L13.4,21.486a.961.961,0,0,0,1.328,0l5.625-5.438Z" transform="translate(9.807 10.39)" fill="#f1f1f1" fill-rule="evenodd"/>
  </g>
</svg>
