<svg xmlns="http://www.w3.org/2000/svg" width="17.981" height="18" viewBox="0 0 17.981 18">
  <path id="home" d="M17.639,9.771a1.125,1.125,0,0,1-.825.342A1.11,1.11,0,0,1,16,9.78l-.263-.263v7.358a1.094,1.094,0,0,1-.325.79,1.072,1.072,0,0,1-.8.333H11.238V12.941a.57.57,0,0,0-.562-.562H7.305a.57.57,0,0,0-.562.562V18H3.371a1.072,1.072,0,0,1-.8-.333,1.093,1.093,0,0,1-.324-.79V9.517l-.263.263a1.11,1.11,0,0,1-.816.333,1.125,1.125,0,0,1-.825-.342A1.125,1.125,0,0,1,0,8.946a1.11,1.11,0,0,1,.333-.816l7.8-7.8A1.112,1.112,0,0,1,8.991,0a1.112,1.112,0,0,1,.86.333l7.8,7.8a1.11,1.11,0,0,1,.333.816,1.125,1.125,0,0,1-.342.825Z" transform="translate(0 0.002)" fill="#f1f1f1"/>
</svg>
