<svg xmlns="http://www.w3.org/2000/svg" width="187.154" height="172.742" viewBox="0 0 187.154 172.742">
  <g id="maelstrom_business" transform="translate(-1.146 -0.56)">
    <path id="Violet" d="M981.3,610.56a3.642,3.642,0,0,1,0,.57h0v.07a5.3,5.3,0,0,1-.1.55,6.549,6.549,0,0,1-.57,1.6,9.553,9.553,0,0,1-.69,1.16c-1.85,2.71-5.48,5.51-10.53,8.06-.72.37-1.46.73-2.24,1.08l-1.19.53c-.6.26-1.21.51-1.85.77l-1.94.75h0l-1.34.48h-.1l-.59.21-.28.1-.41.13h-.11l-.65.22-.66.21h-.11l-.67.2-.68.21-.73.21L955,628l-1.5.41h-.13l-1.36.35-1.45.36-1.14.27-1.7.38-1.45.3-1.42.27c-.84.15-1.67.28-2.48.41h-.29l-1.59.21c-.62.08-1.22.14-1.81.2-6.93.65-12.06-.12-14.39-2.43a4.441,4.441,0,0,1-.77-1,4.278,4.278,0,0,1-.47-1.12,1.173,1.173,0,0,1,0-.18,2.991,2.991,0,0,1-.08-.41,3.9,3.9,0,0,1,0-.59,5,5,0,0,1,.09-.93h.64l1.22-.05,1.34-.09.76-.05h0a1.271,1.271,0,0,0,.27,0h0l1.6-.14,1.63-.17,2.43-.3,1.9-.27,2.25-.35c.75-.13,1.52-.26,2.29-.41l2.35-.44c1.5-.3,3-.63,4.6-1l.95-.22.37-.08.55-.13.63-.15.24-.06,2.53-.63,2-.52h.08l.27-.08h.19l1.15-.32,1.47-.4,1.1-.32.2-.05.44-.13.65-.2h.33l.48-.15.47-.15h0l.63-.19.32-.1.31-.1.44-.13c.87-.27,1.74-.55,2.59-.84l1.26-.43,1.25-.44,1.85-.67c1.15-.42,2.28-.86,3.38-1.3l1.88-.77.29-.12c.64-.27,1.27-.54,1.89-.82h0c.51-.22,1-.45,1.5-.68l1.46-.68c.48-.23,1-.46,1.42-.7l.15-.07a2.785,2.785,0,0,1,.07.4,5.318,5.318,0,0,1,.17.56Z" transform="translate(-846.31 -458.08)" fill="#236bfe"/>
    <path id="Green" d="M1002.56,582.24v.08a1,1,0,0,1,0,.17,1.48,1.48,0,0,1,0,.21v.06a.171.171,0,0,1,0,.07h0v.24h0a.3.3,0,0,1,0,.13.284.284,0,0,1,0,.09.129.129,0,0,1,0,.06.651.651,0,0,1,0,.24h0a3.382,3.382,0,0,1-.14.69c-.05.23-.12.48-.19.72l-.14.41a.488.488,0,0,0,0,.11.21.21,0,0,1-.07.19c-.08.22-.17.43-.26.65a1,1,0,0,0-.07.15c0,.11-.1.22-.16.33s-.1.2-.15.3-.22.42-.35.63-.37.64-.58,1l-.45.65c-.16.23-.33.45-.5.67-.05.06-.09.12-.14.17l-.53.66a30.6,30.6,0,0,1-2.94,3l-.85.75c-.61.52-1.24,1-1.9,1.54l-1,.71-.42.3-.56.4-.3.21-.59.4c-1.49,1-3.11,2-4.84,3l-.59.33-1.18.64c-.35.19-.7.38-1.06.56l-1,.5-.77.38c-1.29.64-2.64,1.27-4,1.89h-.05c-1.35.6-2.74,1.19-4.18,1.76l-1.1.44c-.57.22-1.13.44-1.71.65l-1.75.64-1.18.42c-1.58.56-3.22,1.1-4.89,1.63l-.31.1-.32.1-.63.19h0l-.47.15-.48.15-.18.05h-.15l-1.29.38-1.31.37-1.26.35-1.25.34h-.09l-2.36.62-2.53.63-.24.06-.63.15-.55.13-.37.08-.95.22c-1.56.35-3.1.68-4.6,1l-2.35.44-1,.19-1,.18h-.27l-2.25.35-1.9.27-2.43.3-1.63.17-1.6.14h0a1.272,1.272,0,0,1-.27,0h-.76l-1.34.09h-7.25l-1.45-.1-1.39-.13-1.37-.17h-.14l-.91-.16-.87-.17c-.4-.08-.79-.16-1.16-.26s-.62-.16-.91-.25c-.7-.21-1.36-.44-2-.69-.42-.17-.81-.35-1.19-.54l-.18-.1-.47-.26-.44-.26a11.615,11.615,0,0,1-1-.67,10.336,10.336,0,0,1-.85-.75c-.17-.17-.34-.35-.49-.53v-.05c-.06-.08-.13-.15-.18-.23a4.363,4.363,0,0,1-.32-.43,6,6,0,0,1-.54-.91,5.531,5.531,0,0,1-.34-.79,1.466,1.466,0,0,1-.07-.19c-.06-.17-.11-.34-.16-.51a8.078,8.078,0,0,1-.27-2.08c0-.24,0-.47,0-.71h0a.129.129,0,0,1,0-.06,1.761,1.761,0,0,1,.08-.64,3.584,3.584,0,0,1,.09-.45,4.563,4.563,0,0,1,.12-.5q.09-.35.21-.69c.08-.23.17-.47.26-.7s.1-.25.16-.38.18-.4.29-.61a3.246,3.246,0,0,1,.17-.32c.11-.22.24-.45.37-.67s.27-.45.42-.67.46-.68.71-1l.39-.51.2-.25h.11l1,.13,1,.11,1,.09,1,.08,1.48.07h4.56c1.18,0,2.12-.06,3.23-.12l2.73-.18h.43a34.169,34.169,0,0,0-8.09,6.65,28,28,0,0,0,6,.7h.17a.273.273,0,0,1,.09,0h4.61l1.51-.09c.81-.06,1.64-.13,2.52-.22a146.993,146.993,0,0,0,23.39-4.51l2.48-.68c14.54-4.09,24.22-8.9,30.14-12.87a31.2,31.2,0,0,0,6.34-5.32h-.11a31.444,31.444,0,0,0-5.62-.72l1.17-.57c.93-.46,1.85-.92,2.73-1.39l1.36-.73c.48-.26,1-.52,1.43-.79l.48-.27h0l.13-.07h0l.18-.1,1-.62c.73-.43,1.44-.86,2.13-1.3s1.39-.9,2.06-1.35l.67-.47.18-.12h.09c.19.12.39.24.57.37a5.315,5.315,0,0,1,.54.39c.17.13.34.27.49.41l.1.09.36.34.34.38.06.07a1.788,1.788,0,0,1,.18.23c.12.15.22.29.32.44l.23.37a4,4,0,0,1,.24.46,2.475,2.475,0,0,1,.17.37,3,3,0,0,1,.14.36v.07c.05.14.09.29.13.44s.09.36.13.54a4.717,4.717,0,0,1,.08.5,4.335,4.335,0,0,1,0,.51C1002.38,581.73,1002.56,582,1002.56,582.24Z" transform="translate(-846.31 -458.08)" fill="#236bfe"/>
    <path id="Red" d="M1011.694,550.05v.52s-.089.793-.094.889c0,.12,0,.23,0,.35a4.822,4.822,0,0,1-.11.59v.1l-.12.49c-.05.2-.11.4-.17.59s-.13.4-.2.6-.15.4-.23.6a17.375,17.375,0,0,1-1.33,2.61,11.532,11.532,0,0,1-.66,1c-.23.31-.28.41-.43.61-.45.62-.94,1.23-1.47,1.85-.36.41-.73.82-1.12,1.23-.23.24-.47.49-.72.73l-.51.5c-.85.83-1.77,1.65-2.77,2.47l-.76.61c-.49.39-1,.78-1.52,1.17s-1.17.85-1.78,1.27l-.67.47c-.67.45-1.36.9-2.06,1.35s-1.4.87-2.13,1.3l-1.23.72h-.06l-.13.07h0l-1.19.69-1.25.68-2.44,1.28-.14.07-1.34.66c-1.34.66-2.71,1.3-4.13,1.94l-1.53.67-1.22.53q-3.12,1.32-6.49,2.58a.111.111,0,0,1-.07,0l-.37.13-.59.23-.63.23h-.07l-1.55.55-1.67.58-1,.34-.85.28c-.28.1-.57.18-.86.27l-1,.34-.49.16h-.4l-.58.18h-.47l-1.56.47-1.17.35-1.73.49c-1.15.32-2.29.64-3.42.94l-1.44.38-1.42.37-.27.07-1.27.31-.85.22-.46.11h-.2l-1.51.36h-.17a1.958,1.958,0,0,0-.52.12l-1.52.34h-.08l-1.19.26h-.06l-2,.42-.68.14-1.1.22-1.43.28-.85.16-2,.36-1.39.23-1.36.22-1.36.21-1.71.25-1.68.22-2,.23-1.78.19-1.84.17h0c-1.11.09-2.19.16-3.25.22s-2.18.1-3.23.12-2.33,0-3.44,0h-.42c-.74,0-1.47-.06-2.18-.1l-1.05-.08-1-.09-1-.11-1-.13-.95-.14-.79-.14-.67-.13-.88-.19c-.83-.19-1.62-.4-2.37-.64-.31-.09-.6-.19-.89-.3l-.85-.32c-.55-.22-1.08-.46-1.58-.71-.23-.11-.45-.23-.67-.36s-.43-.25-.63-.38l-.57-.37c-.25-.17-.48-.34-.7-.52l-.43-.36q-.37-.33-.72-.69c-.13-.13-.25-.27-.37-.41l-.11-.12-.05-.07-.25-.32a5.468,5.468,0,0,1-.44-.63,3.262,3.262,0,0,1-.24-.4,5.373,5.373,0,0,1-.28-.53l-.11-.23a8.843,8.843,0,0,1-.53-1.47,9.743,9.743,0,0,1-.31-3.09,2.828,2.828,0,0,1,0-.41,5.468,5.468,0,0,1,.1-.8c.04-.27,0-.25.07-.37.08-.4.19-.81.31-1.22.07-.21.14-.43.22-.65a9.379,9.379,0,0,1,.43-1,4.684,4.684,0,0,1,.21-.46l.06-.12c1.41.08,2.87.14,4.38.16h.72c3.58,0,7.43-.13,11.52-.47h.5a25.91,25.91,0,0,0-4.57,4.52,29.639,29.639,0,0,0,6.43.92l-.08.06a73.571,73.571,0,0,0,8.36-.14l.89-.06.95-.07,2-.18,1.69-.18,1.36-.16,1.32-.17a190.376,190.376,0,0,0,24.14-5l3-.82c19.36-5.44,31.61-11.93,38.53-17a32.321,32.321,0,0,0,6.1-5.53h-.11a29.12,29.12,0,0,0-3.69-.66h.1q4.71-2.45,8.79-5l.92-.58h0l.1-.06h0c1.36-.86,2.67-1.73,3.91-2.61l.4-.28.15.12.4.33h0l.29.27.3.29c.13.13.24.26.36.39l.12.14c.13.15.25.31.37.47s.25.35.37.53a8,8,0,0,1,.6,1.12,8.222,8.222,0,0,1,.42,1.21,8.482,8.482,0,0,1,.24,1.22c0,.22.005.707,0,.81Z" transform="translate(-846.31 -458.08)" fill="#236bfe"/>
    <path id="Blue" d="M1024.44,512.71v.36a.77.77,0,0,1,0,.15.223.223,0,0,1,0,.08c0,.2,0,.42,0,.63a.223.223,0,0,1,0,.08,2.2,2.2,0,0,1-.09.76v.08a3.537,3.537,0,0,1-.12.7v.17h0c-.94,4.37-3.79,8.94-8.34,13.51-1.06,1.08-2.24,2.16-3.5,3.24-.63.54-1.29,1.08-2,1.62s-1.55,1.21-2.37,1.81l-.82.6-1.13.8q-1.15.79-2.37,1.59l-1.17.76h0l-.1.06h0l-1.2.76c-.85.52-1.73,1.05-2.62,1.57s-1.81,1-2.74,1.55c-.54.3-1.09.59-1.64.88-3.76,2-7.84,4-12.2,5.86l-.6.26-.56.24h0l-.23.1h0l-.93.4-1,.41q-4.31,1.77-9,3.45c-1.24.45-2.5.89-3.77,1.32q-6.71,2.29-14,4.35-3.13.89-6.21,1.69l-3.69.94c-2.68.67-5.31,1.28-7.9,1.85l-1.92.42-1.92.4q-6.06,1.24-11.74,2.13h0l-.58.09h0c-5.6.85-10.87,1.42-15.76,1.71q-4.18.24-8,.2h-.51c-15.26-.21-25.62-3.89-28.84-11.31a12.479,12.479,0,0,1-.6-1.72h0a13.611,13.611,0,0,1,.1-7.16l1.28.26c.2.05.4.08.61.12l1.34.22a84.1,84.1,0,0,0,11.35,1h.6a7.219,7.219,0,0,0-.63,1.16A16.851,16.851,0,0,0,883,554.3c3.8.82,9.84,1.4,18.62.87l1.13-.08,2.75-.22,1.84-.19,1.37-.15c3.37-.39,7-.92,11.06-1.63l-.15.07.93-.17h0c6.85-1.21,14.64-2.93,23.48-5.3l4-1.09a232.011,232.011,0,0,0,22.42-7.48h0l.58-.23h0c18.71-7.46,29.57-15.18,34.72-20.31a22.08,22.08,0,0,0,2.8-3.28h0a99.454,99.454,0,0,0,8.16-5.84l.08-.06-.44-.28.45.27,1-.79q1-.8,1.86-1.59l.72-.63,1-1,.22-.21a11.092,11.092,0,0,1,1.87,3l.18.49c.08.22.15.45.21.68s.11.43.16.64a.235.235,0,0,1,0,.08,3.639,3.639,0,0,0,.1.56c.07.43.12.87.15,1.3v.1A1.791,1.791,0,0,1,1024.44,512.71Z" transform="translate(-846.31 -458.08)" fill="#236bfe"/>
    <path id="Blue_intérieur" data-name="Blue intérieur" d="M953.67,508.77c.5-.1-.88.35-1.42.47h-.1l-1.7.53c-.76.24-1.53.48-2.3.7-1.85.57-3.75,1.12-5.69,1.67l-4.68,1.28c-3.21.86-6.32,1.66-9.31,2.38l-2.72.64-.52.12h0l-2.17.5c-6.5,1.46-12.43,2.59-17.81,3.43l-2.33.36-3,.42-1.53.2-1.4.18c-.87.11-1.72.2-2.55.29h-.68q2.68-1.47,5.56-2.9l1-.51c.76-.38,1.54-.75,2.32-1.11l2-.95.21-.09,2.33-1,.85-.37,1.93-.82,1-.39c.44-.19.88-.36,1.32-.54l1.06-.42c.83-.33,1.67-.65,2.52-1l2.16-.81c.72-.27,1.45-.54,2.19-.79l.38-.14h.11l2.39-.82,2.77-.92,2.56-.82,3-.91,1.5-.44,1.52-.44c1.37-.38,2.73-.76,4.08-1.12q2.74-.74,5.46-1.41l1.31-.32c1.57-.38,3.14-.74,4.69-1.09.63-.15,1.27-.29,1.9-.42q4.09-.88,8.07-1.61l1.73-.31c3.44-.61,6.81-1.12,10.08-1.54l1.63-.2c1.63-.19,3.23-.37,4.8-.51l1.57-.14c1.28-.1,2.54-.2,3.78-.27a227.913,227.913,0,0,1-29.87,11.96Z" transform="translate(-846.31 -458.08)" fill="#236bfe"/>
    <path id="Yellow" d="M1034.59,475.17a1.569,1.569,0,0,0-.07-.56,6.559,6.559,0,0,1-.14-.8c-.05-.27-.12-.57-.19-.85v-.15c-.07-.26-.15-.51-.24-.76v-.38l-.06-.16h0v-.09h0v-.05h0q0-.055,0-.11h0a.772.772,0,0,0-.07-.16c-.06-.14-.12-.27-.19-.4h0a.358.358,0,0,0,0-.09.41.41,0,0,1,0-.09c0-.08-.08-.16-.13-.24s-.25-.44-.39-.65a1.011,1.011,0,0,0-.08-.14,8.708,8.708,0,0,0-.69-.94,5.336,5.336,0,0,0-.38-.48v-.05l-.42-.46h0a.121.121,0,0,0,0-.05l-.52-.52c-.19-.19-.39-.38-.6-.56l-.58-.49h0l-.21-.17-.55-.42-.39-.27-.37-.25-.22-.14-.15-.1-.15-.09a.408.408,0,0,0-.11-.07l-.76-.45h0l-.16-.09a.56.56,0,0,0-.17-.09h0l-.09-.05a4.151,4.151,0,0,0-.42-.22l-.56-.28h0l-.5-.23c-.38-.18-.76-.35-1.16-.51l-.34-.14-1.21-.47-.87-.3-1-.33-1.06-.31-1.07-.29-.8-.2-.35-.08h0c-.75-.18-1.51-.34-2.3-.49h-.16l-1.14-.2-1.16-.19c-.84-.13-1.69-.25-2.57-.35l-.66-.08-.66-.07-1.35-.13-1.2-.1h-1.55l-1.46-.08c-.48,0-1-.05-1.46-.06h-7.8l-1.7.05c-.83,0-1.67.06-2.52.11l-1.56.08-1.91.12-1.71.12c-3.94.31-8,.75-12.26,1.33-1.15.15-2.31.32-3.49.5-1.63.24-3.27.5-4.94.78-1.21.21-2.43.42-3.66.65-2.39.43-4.8.91-7.24,1.42l-2.22.47-2.23.49-2,.45q-3.69.85-7.44,1.81c-1.32.34-2.65.68-4,1-1.59.43-3.18.86-4.78,1.32l-3.58,1-3.13,1c-1.47.46-2.92.92-4.36,1.4s-2.87,1-4.28,1.45-2.8,1-4.18,1.5q-1.8.66-3.57,1.35l-1.51.59-3,1.2h0l-1.94.81c-1.29.54-2.57,1.1-3.82,1.65l-.32.14-1.55.7c-1.24.56-2.46,1.13-3.67,1.71l-3.53,1.74q-1.74.87-3.42,1.77-3.36,1.78-6.45,3.62l-.69.41-.84.51h0l-1.13.7-.36.23c-1,.61-2,1.24-2.9,1.86-.47.31-.94.62-1.4.94l-.87.6-.11.08-.63.44-.08.06c-.34.23-.67.47-1,.71l-.33.24c-.29.21-.57.41-.84.62-.49.36-1,.73-1.45,1.1l-.21.16c-.72.56-1.42,1.12-2.1,1.69a.1.1,0,0,0-.05,0c-.49.4-1,.8-1.42,1.2l-.54.47c-.25.22-.49.43-.72.65l-.44.4-.13.12-1,1h0l-.44.43-.52.52c-.29.29-.57.57-.84.86l-.11.12-.69.73-.16.17-.05.06h0l-.07.08h0l-.6.67c-.2.22-.39.45-.57.67l-.64.77-.09.11-.41.52-.1.12a.471.471,0,0,0-.09.12q-.33.42-.63.84l-.31.42c-.29.4-.57.8-.82,1.2l-.11.17-.11.17c-.28.42-.53.83-.76,1.24-.11.17-.21.35-.3.52l-.24.44-.24.47-.09.17a.557.557,0,0,0-.07.13c-.09.2-.19.39-.28.59a.358.358,0,0,0,0,.09c-.07.14-.13.28-.2.43a1,1,0,0,0-.09.21h0a5.476,5.476,0,0,0-.21.51,6.639,6.639,0,0,0-.24.62c-.11.28-.2.56-.29.83a.16.16,0,0,0,0,.09l-.12.38-.09.31V521q-.09.29-.15.57l-.05.17a.35.35,0,0,0,0,.13.287.287,0,0,0,0,.09h0a.358.358,0,0,0,0,.1s0,0,0,.07v.05h0c-.1.49-.18,1-.24,1.46h0v.15a.219.219,0,0,0,0,.08c0,.14,0,.27,0,.41a3.141,3.141,0,0,0,0,.44q-.03.595,0,1.19h0v.69a3.064,3.064,0,0,0,.09.87c.09.29,0,.32.07.47a.361.361,0,0,0,0,.11.579.579,0,0,0,0,.19.682.682,0,0,0,.07.37,3.07,3.07,0,0,0,.18.77c.07.26.21.73.34,1.08l.19.52c.07.18.14.35.22.52l.06.13c.13.29.28.58.43.87l.27.48c.1.16.19.32.29.47.21.32.42.62.65.92s.46.59.71.88c.1.12.21.23.31.34l.32.34.16.16c.26.26.53.51.81.76h0c.3.26.61.51.93.76a8.008,8.008,0,0,0,.66.48,3.529,3.529,0,0,0,.34.24c.29.2.6.39.91.58l.31.19c.32.19.65.37,1,.55s.79.41,1.2.6l.56.25.3.13q.36.16.72.3l.5.2.4.15h.06l.25.09.17.06h.11l.2.07.75.26,1,.29.7.2.71.19.62.16.66.16.7.16,1.56.32c.2.05.4.08.61.12l1,.17,1,.16c.35.06.71.11,1.07.15,1.07.14,2.18.26,3.31.36.76.07,1.53.12,2.31.17l.82.05h9.56c12.45-.35,27.26-2.42,43.7-6.11h0c2.35-.53,4.73-1.1,7.14-1.69s5-1.27,7.58-2l4.46-1.23,2-.56.84-.24,1.19-.35h0l.93-.28.92-.28,1-.29,1-.3,1.91-.59q5.67-1.78,11-3.71l1.76-.64,1.74-.64c1.16-.44,2.3-.87,3.42-1.32q4.61-1.79,8.88-3.68c.76-.33,1.51-.67,2.25-1l1-.47.47-.22h0l.25-.12c1-.47,2-.94,3-1.42l.24-.12h.06l1.56-.77c.79-.39,3.747-2.159,3.747-2.159l3.133-2a118.525,118.525,0,0,0,15.4-10.24l.08-.06h0l1-.79h0c.63-.53,1.25-1.06,1.84-1.58s1.19-1.06,1.76-1.59,1.11-1.06,1.64-1.59q1.74-1.75,3.18-3.49l.38-.46c.63-.78,1.21-1.55,1.75-2.32.23-.32.44-.64.64-.95.36-.54.69-1.08,1-1.62.14-.24.27-.48.39-.71a.419.419,0,0,0,.07-.13c.14-.25.27-.5.4-.76.33-.66.62-1.32.88-2h0c.11-.26.21-.51.3-.76s.21-.62.3-.92.18-.61.26-.92c.13-.51.24-1,.32-1.52a4.977,4.977,0,0,1,.1-.64,2.747,2.747,0,0,1,0-.28,3.06,3.06,0,0,1,.07-.79v-1.16A16.336,16.336,0,0,0,1034.59,475.17ZM1020,478.44a.8.8,0,0,1-.12.39c-.05.14-.11.28-.18.43a10.917,10.917,0,0,1-1.15,1.94c-.16.23-.33.46-.53.71q-.53.69-1.23,1.47c-.3.34-.62.68-1,1.05l-.19.19c-.5.51-1.05,1.05-1.64,1.6l-.09.09-.59.53c-.84.75-1.76,1.54-2.77,2.35-.22.18-.44.36-.67.53l-1.22.95-.37.28-1.09.8c-.22.17-.45.33-.69.5-.58.42-1.19.84-1.82,1.27l-.08.06a1.469,1.469,0,0,1-.21.13c-.73.5-1.49,1-2.28,1.51s-1.59,1-2.43,1.52h0l-.23.14c-.52.32-1,.63-1.6.95q-2.535,1.5-5.42,3l-.31.17-.22.11c-.16.08-.32.16-.47.25l-.75.39-1.47.75q-2.21,1.13-4.62,2.26h0l-.29.14-.72.34h0l-.3.14h0c-2.6,1.2-5.35,2.4-8.28,3.59-.84.35-1.7.7-2.58,1s-1.88.74-2.85,1.1c-.55.22-1.11.43-1.67.63l-1.69.62-1.76.63c-1.17.42-2.36.84-3.57,1.24s-2.45.82-3.7,1.23l-1.42.47h-.1q-4.65,1.49-9.69,2.9l-4.68,1.28q-6.59,1.77-12.55,3.14h0l-2.17.5c-6.5,1.46-12.43,2.59-17.81,3.43l-2.33.36-3,.42-1.53.2-1.4.18c-.87.11-1.72.2-2.55.29h-1.96c-.74.08-1.46.14-2.16.19l-.69.06-1.14.09-2.22.14-1.07.06h-2.24l-2.4.05h-7.2a59.916,59.916,0,0,1-9.45-1.25l-1.32-.33a22,22,0,0,1-3.81-1.38,5.051,5.051,0,0,1-1.75-1.27v-.14a2.176,2.176,0,0,1,0-.25,1.944,1.944,0,0,1,0-.22h0l.06-.28a2.168,2.168,0,0,1,.07-.24,6,6,0,0,1,.4-1c.13-.27.28-.55.45-.85a3.484,3.484,0,0,1,.22-.36l.11-.17a6.775,6.775,0,0,1,.42-.62,7.482,7.482,0,0,1,.45-.63l.25-.32c.3-.4.64-.81,1-1.24l.42-.47a4.781,4.781,0,0,1,.44-.48c.29-.33.61-.66.95-1l.51-.51c.17-.18.35-.35.54-.52l.56-.53c1.17-1.1,2.5-2.25,4-3.43l.49-.39q2.57-2,5.77-4.19l.66-.45.46-.3q2.72-1.79,5.86-3.62l.48-.28c.38-.23.78-.46,1.18-.68l1.39-.78c1.07-.6,2.19-1.2,3.34-1.79.41-.22.83-.44,1.26-.65,1-.49,1.92-1,2.91-1.46l1-.49.44-.21,1-.45c1-.46,1.93-.91,2.93-1.35l2.12-.94,2.18-.93,2.24-.93,1.41-.57c4.08-1.63,8.43-3.23,13.08-4.77l1.77-.58c1.43-.47,2.88-.92,4.36-1.37q.64-.21,1.29-.39c1.3-.4,2.62-.78,4-1.16l4.58-1.26q4.1-1.1,8-2l1.94-.46c1.93-.46,3.83-.88,5.69-1.28,1.41-.31,2.81-.59,4.18-.87h0c2.06-.41,4.08-.79,6-1.13h0c1.31-.23,2.6-.45,3.86-.65l1.91-.29c1.24-.19,2.47-.37,3.67-.53h0q1.82-.26,3.54-.45c1.76-.21,3.47-.39,5.12-.54q3.29-.31,6.32-.48h0l1.1-.06h1.39c1.13-.05,2.22-.08,3.29-.1h7.09l1.11.05,1.58.09a6.084,6.084,0,0,1,1.28.09l1.09.09c1.7.16,3.25.36,4.66.59l.88.15.93.18.85.18h0l.83.2.79.21.76.23.7.23c.18.06.36.12.52.19l.8.33.28.13c.2.1.4.19.58.3l.27.15a5.139,5.139,0,0,1,1.22,1h0l.08.09a1.478,1.478,0,0,1,0,.31A2,2,0,0,1,1020,478.44Z" transform="translate(-846.31 -458.08)" fill="#236bfe"/>
  </g>
</svg>
