<svg xmlns="http://www.w3.org/2000/svg" width="22.5" height="20" viewBox="0 0 22.5 20">
  <path id="Icon_awesome-map-marked-alt" data-name="Icon awesome-map-marked-alt" d="M11.25,0A4.922,4.922,0,0,0,6.328,4.922c0,2.2,3.217,6.2,4.449,7.657a.616.616,0,0,0,.945,0c1.232-1.454,4.449-5.459,4.449-7.657A4.922,4.922,0,0,0,11.25,0Zm0,6.563a1.641,1.641,0,1,1,1.641-1.641A1.64,1.64,0,0,1,11.25,6.563ZM.786,8.436A1.25,1.25,0,0,0,0,9.6v9.778a.625.625,0,0,0,.857.58L6.25,17.5V8.4a11.83,11.83,0,0,1-.83-1.813ZM11.25,14.05a1.866,1.866,0,0,1-1.426-.662c-.768-.906-1.585-1.938-2.324-3V17.5L15,20V10.391c-.739,1.058-1.555,2.091-2.324,3A1.867,1.867,0,0,1,11.25,14.05ZM21.643,6.3,16.25,8.75V20l5.464-2.186a1.25,1.25,0,0,0,.786-1.161V6.876A.625.625,0,0,0,21.643,6.3Z" fill="#f1f1f1"/>
</svg>
