<svg xmlns="http://www.w3.org/2000/svg" width="26.072" height="25.03" viewBox="0 0 26.072 25.03">
  <g id="Icon_awesome-star" data-name="Icon awesome-star" transform="translate(1.02 1)">
    <path id="Icon_awesome-star-2" data-name="Icon awesome-star" d="M12.168.8,9.235,6.746,2.672,7.7a1.438,1.438,0,0,0-.8,2.453l4.748,4.627L5.5,21.318a1.437,1.437,0,0,0,2.084,1.514l5.871-3.086,5.871,3.086a1.438,1.438,0,0,0,2.084-1.514l-1.123-6.536,4.748-4.627a1.438,1.438,0,0,0-.8-2.453l-6.563-.957L14.746.8A1.439,1.439,0,0,0,12.168.8Z" transform="translate(-1.441 0.001)" fill="#f1f1f1" stroke="#f1f1f1" stroke-width="2"/>
  </g>
</svg>
