<svg xmlns="http://www.w3.org/2000/svg" width="20" height="20" viewBox="0 0 20 20">
  <path id="tag" d="M19.391,9.827A1.963,1.963,0,0,1,20,11.26a1.812,1.812,0,0,1-.609,1.385l-6.979,7.042a2.036,2.036,0,0,1-1.429.563A1.875,1.875,0,0,1,9.6,19.687L.609,10.673A1.937,1.937,0,0,1,0,9.264V2.222A1.9,1.9,0,0,1,.586.837,1.944,1.944,0,0,1,2.014.25H8.993A1.9,1.9,0,0,1,10.4.813Zm-15.9-4.6A1.508,1.508,0,0,0,4.567,4.8a1.4,1.4,0,0,0,.445-1.056A1.522,1.522,0,0,0,3.489,2.221a1.389,1.389,0,0,0-1.054.447,1.517,1.517,0,0,0-.422,1.08A1.442,1.442,0,0,0,3.489,5.227Z" transform="translate(0 -0.25)" fill="#f1f1f1"/>
</svg>
