<svg xmlns="http://www.w3.org/2000/svg" width="23.428" height="29.644" viewBox="0 0 23.428 29.644">
  <g id="user_1_" data-name="user (1)" transform="translate(-47.85)">
    <g id="Groupe_25" data-name="Groupe 25" transform="translate(47.85)">
      <g id="Groupe_24" data-name="Groupe 24" transform="translate(0)">
        <path id="Tracé_41" data-name="Tracé 41" d="M65.8,220.526a8.969,8.969,0,0,1-1.369,1.392,9.821,9.821,0,0,1,4.946,8.52c0,1.968-4.311,3.509-9.814,3.509s-9.814-1.541-9.814-3.509a9.821,9.821,0,0,1,4.946-8.52,8.971,8.971,0,0,1-1.369-1.392,11.716,11.716,0,0,0-5.477,9.911c0,1.263.691,3.022,3.985,4.235a23.213,23.213,0,0,0,7.729,1.173,23.213,23.213,0,0,0,7.729-1.173c3.294-1.213,3.985-2.973,3.985-4.235A11.716,11.716,0,0,0,65.8,220.526Z" transform="translate(-47.85 -206.201)" fill="#f1f1f1"/>
        <path id="Tracé_42" data-name="Tracé 42" d="M134.12,15.576c3.692,0,6.534-3.568,6.534-7.788S137.81,0,134.12,0s-6.535,3.568-6.535,7.788S130.429,15.576,134.12,15.576Zm0-13.677c2.556,0,4.635,2.642,4.635,5.889s-2.079,5.889-4.635,5.889-4.635-2.642-4.635-5.889S131.564,1.9,134.12,1.9Z" transform="translate(-122.406)" fill="#f1f1f1"/>
      </g>
    </g>
  </g>
</svg>
